<?xml version="1.0" standalone="no"?>
<!DOCTYPE svg PUBLIC "-//W3C//DTD SVG 20010904//EN"
 "http://www.w3.org/TR/2001/REC-SVG-20010904/DTD/svg10.dtd">
<svg version="1.0" xmlns="http://www.w3.org/2000/svg"
 width="512.000000pt" height="512.000000pt" viewBox="0 0 512.000000 512.000000"
 preserveAspectRatio="xMidYMid meet">

<g transform="translate(0.000000,512.000000) scale(0.100000,-0.100000)"
fill="#000000" stroke="none">
<path d="M4040 4425 c-355 -76 -620 -336 -707 -693 -24 -101 -22 -304 6 -407
14 -53 18 -81 11 -83 -30 -10 -286 -191 -303 -213 -52 -72 -22 -180 60 -220
61 -30 102 -21 191 41 40 28 102 69 139 91 l67 41 43 -50 c94 -109 270 -218
423 -262 104 -30 316 -39 422 -17 227 47 441 188 568 371 47 69 107 202 132
291 31 113 31 334 0 450 -86 318 -334 564 -657 651 -83 22 -310 28 -395 9z"/>
<path d="M106 2930 c-94 -29 -135 -157 -75 -234 36 -46 70 -56 222 -66 79 -5
189 -18 244 -29 117 -23 160 -17 204 25 85 81 48 221 -66 253 -69 20 -206 41
-330 51 -140 11 -160 11 -199 0z"/>
<path d="M2657 2657 c-44 -26 -163 -177 -261 -330 -83 -131 -92 -172 -53 -240
19 -32 38 -49 67 -61 53 -21 75 -20 125 4 35 17 55 40 110 127 38 58 104 151
147 206 47 61 80 114 84 134 25 131 -107 227 -219 160z"/>
<path d="M1093 2641 c-54 -25 -83 -71 -83 -131 0 -67 26 -100 142 -178 57 -39
141 -105 188 -147 100 -89 139 -109 194 -102 106 14 165 145 105 230 -43 62
-244 226 -372 304 -72 44 -118 50 -174 24z"/>
<path d="M1802 1881 c-18 -12 -41 -35 -52 -53 -33 -54 -26 -103 30 -220 27
-57 68 -160 91 -229 42 -130 63 -163 116 -185 97 -41 203 30 203 135 0 106
-167 507 -227 546 -42 28 -121 31 -161 6z"/>
<path d="M793 968 c-34 -17 -45 -58 -42 -158 6 -146 -167 -130 1360 -130 1296
0 1309 0 1329 20 18 18 20 33 20 129 0 106 -1 110 -26 130 l-27 21 -1296 -1
c-886 0 -1303 -4 -1318 -11z"/>
</g>
</svg>
