<?xml version="1.0" encoding="UTF-8"?>
<svg version="1.1" xmlns="http://www.w3.org/2000/svg" width="512" height="512">
<path d="M0 0 C0.79148437 0.73992188 1.58296875 1.47984375 2.3984375 2.2421875 C4.25375078 3.96354315 6.14970874 5.54657091 8.125 7.125 C12.93999345 11.22958458 16.68289083 16.28436195 20.5625 21.25 C21.29597656 22.15621094 22.02945312 23.06242187 22.78515625 23.99609375 C49.54788045 58.027706 60.71607681 105.09836568 56.0234375 147.78125 C55.39217561 152.64338766 54.53626545 157.44580787 53.5625 162.25 C53.42859863 162.93674805 53.29469727 163.62349609 53.15673828 164.33105469 C48.51868677 187.41449649 37.62398027 209.48485555 23.5625 228.25 C22.9128125 229.12398438 22.263125 229.99796875 21.59375 230.8984375 C6.3385354 250.43684696 -12.42581814 265.98152283 -34.4375 277.25 C-35.05447754 277.56807617 -35.67145508 277.88615234 -36.30712891 278.21386719 C-76.46688789 298.64059552 -123.25313885 300.45527128 -165.859375 287.13671875 C-173.07481029 284.76922996 -179.71410315 281.77978335 -186.4375 278.25 C-187.68672351 277.62604712 -188.93674363 277.00368694 -190.1875 276.3828125 C-202.37388647 270.23034089 -213.23976903 262.64349519 -223.21875 253.3125 C-225.19487093 251.47554251 -227.22704621 249.77188835 -229.3125 248.0625 C-245.10704643 234.17091098 -256.92346807 215.307996 -265.4375 196.25 C-265.85056396 195.32888428 -265.85056396 195.32888428 -266.27197266 194.38916016 C-284.86697246 152.18893455 -283.29876104 105.15677868 -267.36938477 62.38549805 C-259.50811811 42.25774767 -247.69515441 25.30651735 -233.4375 9.25 C-232.85742188 8.59644531 -232.27734375 7.94289062 -231.6796875 7.26953125 C-173.30987911 -54.47340678 -62.28495875 -55.75809182 0 0 Z M-163.25 54.25 C-166.16038745 58.2413885 -166.56330995 60.84885126 -166.57794189 65.657547 C-166.58365204 66.78049667 -166.58936218 67.90344635 -166.59524536 69.0604248 C-166.59636322 70.29321167 -166.59748108 71.52599854 -166.59863281 72.79614258 C-166.60359772 74.09392136 -166.60856262 75.39170013 -166.61367798 76.72880554 C-166.62679512 80.29090012 -166.63324565 83.85297585 -166.63768864 87.4150908 C-166.6406206 89.64119295 -166.64472566 91.86728995 -166.64919281 94.09338951 C-166.66286623 101.06018799 -166.67253352 108.02697471 -166.6763947 114.99378568 C-166.68087456 123.03247167 -166.69841964 131.07098755 -166.7273953 139.10962182 C-166.74902175 145.32543943 -166.7590995 151.54120922 -166.76043582 157.75706404 C-166.76148321 161.46846316 -166.76737668 165.17970232 -166.78525543 168.89106178 C-166.80481888 173.03270389 -166.80044333 177.17399062 -166.79394531 181.31567383 C-166.8031601 182.542388 -166.81237488 183.76910217 -166.8218689 185.0329895 C-166.78432342 192.66059432 -166.19009405 197.36937832 -160.75 203.0625 C-156.98987114 205.54560396 -153.8768588 206.31314358 -149.4375 206.25 C-146.03115166 205.22831762 -146.03115166 205.22831762 -142.6875 203.3125 C-142.02395508 202.961875 -141.36041016 202.61125 -140.67675781 202.25 C-138.24583508 200.9469136 -135.84097241 199.60306266 -133.4375 198.25 C-132.44105469 197.69038574 -131.44460937 197.13077148 -130.41796875 196.55419922 C-123.922351 192.89117645 -117.45345314 189.18337763 -110.99517822 185.45506287 C-104.48800842 181.69887393 -97.96300915 177.97420752 -91.4375 174.25 C-89.11570738 172.92348855 -86.79419982 171.5964785 -84.47265625 170.26953125 C-79.08077869 167.18812824 -73.68757222 164.1090586 -68.29350281 161.03149414 C-65.31258792 159.33038658 -62.33272229 157.6274929 -59.35522461 155.92041016 C-54.12852688 152.92467905 -48.89696493 149.94121502 -43.6328125 147.01171875 C-42.7569751 146.51905518 -41.8811377 146.0263916 -40.97875977 145.51879883 C-39.39351906 144.62742296 -37.80327382 143.7448529 -36.20678711 142.8737793 C-31.09392851 139.97911656 -26.83575354 136.84646944 -24.625 131.16015625 C-24.1113817 126.09887589 -24.70970259 122.71366849 -27.4375 118.25 C-33.17056174 113.01180725 -40.1687351 109.4428218 -46.9375 105.75 C-55.50088301 101.01946215 -64.00491538 96.21001496 -72.4375 91.25 C-81.57931771 85.8812816 -90.79592754 80.66363751 -100.06225586 75.51318359 C-107.43708829 71.40265908 -114.7274133 67.16329651 -122 62.875 C-128.79617645 58.88607177 -135.60495951 54.95889369 -142.625 51.375 C-143.25414307 51.04709473 -143.88328613 50.71918945 -144.53149414 50.38134766 C-151.901098 46.72667785 -157.82050924 47.95992714 -163.25 54.25 Z " fill="#000000" transform="translate(367.4375,39.75)"/>
<path d="M0 0 C10.47917755 7.18673325 17.19736658 17.15889987 20.3125 29.5859375 C21.15490924 35.38789129 21.46454392 41.13599322 21.47363281 46.9921875 C21.48108017 48.17216309 21.48108017 48.17216309 21.48867798 49.37597656 C21.50313483 51.94597281 21.51007153 54.51590749 21.515625 57.0859375 C21.51986607 58.41371216 21.51986607 58.41371216 21.52419281 59.76831055 C21.53911351 64.44710583 21.54838957 69.12587081 21.55273438 73.8046875 C21.55822782 78.61613087 21.58229468 83.42729254 21.61070633 88.23864746 C21.62938936 91.96029461 21.63454118 95.68187438 21.63607025 99.40356445 C21.63908135 101.17685496 21.64705726 102.95014472 21.66025543 104.72338867 C21.80499364 125.65212363 21.80499364 125.65212363 16.89581299 131.18164062 C12.6328356 134.96262762 9.00284527 135.88735541 3.37109375 135.8046875 C-1.74425515 135.26112101 -5.45665757 132.41508409 -8.6875 128.5859375 C-9.98237016 124.70132703 -9.8107604 121.02709794 -9.78515625 116.98046875 C-9.7837413 116.14126389 -9.78232635 115.30205902 -9.78086853 114.43742371 C-9.77527215 111.75772534 -9.76272035 109.0781106 -9.75 106.3984375 C-9.74498453 104.58138142 -9.74042171 102.76432402 -9.73632812 100.94726562 C-9.72615491 96.49343146 -9.7065788 92.03977807 -9.6875 87.5859375 C-20.9075 87.5859375 -32.1275 87.5859375 -43.6875 87.5859375 C-43.63529297 91.48792969 -43.63529297 91.48792969 -43.58203125 95.46875 C-43.55860509 98.00063989 -43.54040597 100.5325175 -43.52270508 103.06445312 C-43.50766005 104.81808923 -43.48721896 106.57168797 -43.46118164 108.32519531 C-43.42460879 110.85230759 -43.4077308 113.37892046 -43.39453125 115.90625 C-43.37904739 116.68461212 -43.36356354 117.46297424 -43.34761047 118.2649231 C-43.34612541 123.1168464 -44.03300549 126.36897484 -46.6875 130.5859375 C-51.30714462 134.85910877 -55.10994029 136.0162157 -61.26953125 135.92578125 C-65.41459083 135.34319614 -68.77650032 133.58255482 -71.6875 130.5859375 C-74.49755071 125.15143817 -75.12240437 120.87582214 -75.07568359 114.81176758 C-75.08094055 113.96195312 -75.08619751 113.11213867 -75.09161377 112.23657227 C-75.10475601 109.44268091 -75.09609225 106.64936538 -75.0859375 103.85546875 C-75.08796083 101.89881787 -75.09087442 99.94216772 -75.09463501 97.98551941 C-75.09905136 93.88765268 -75.09265296 89.78998249 -75.07861328 85.69213867 C-75.06157858 80.46836722 -75.07133071 75.24506021 -75.08933067 70.02130604 C-75.10023564 65.97953371 -75.09669059 61.93786916 -75.0889473 57.89609337 C-75.08696084 55.97178783 -75.08934925 54.04747218 -75.09638596 52.12317848 C-75.14829963 33.927286 -73.17408426 18.59224454 -60.13671875 4.84375 C-56.32105569 1.3262807 -52.3396813 -1.14815989 -47.6875 -3.4140625 C-46.89214844 -3.8265625 -46.09679687 -4.2390625 -45.27734375 -4.6640625 C-30.69437424 -11.15539978 -13.07303613 -8.37491377 0 0 Z M-41.625 31.1484375 C-43.2533032 34.8839566 -43.81264233 38.06487322 -43.78515625 42.1328125 C-43.78265869 42.89432617 -43.78016113 43.65583984 -43.77758789 44.44042969 C-43.76848389 45.39594727 -43.75937988 46.35146484 -43.75 47.3359375 C-43.729375 50.3884375 -43.70875 53.4409375 -43.6875 56.5859375 C-32.4675 56.5859375 -21.2475 56.5859375 -9.6875 56.5859375 C-8.77839815 40.63164516 -8.77839815 40.63164516 -15.125 27.6484375 C-19.7567323 23.92045785 -23.19167749 23.08131562 -29.08203125 23.203125 C-34.51189227 24.00091567 -38.3665273 26.83884457 -41.625 31.1484375 Z " fill="#000000" transform="translate(274.6875,376.4140625)"/>
<path d="M0 0 C1.24304398 -0.00574036 1.24304398 -0.00574036 2.51119995 -0.01159668 C4.26105975 -0.01430974 6.01096052 -0.00699103 7.76074219 0.00976562 C10.40134401 0.03102184 13.03917421 0.01003021 15.6796875 -0.015625 C30.00201689 -0.04040221 40.94807798 2.27185409 52.3046875 11.53125 C52.94148438 12.03140625 53.57828125 12.5315625 54.234375 13.046875 C62.67427031 20.47398287 67.7425596 32.85775808 68.55078125 43.890625 C69.00667659 57.42933513 65.77415967 68.84437666 57.3046875 79.53125 C52.22796787 84.87276256 46.56433245 88.72604731 40.3046875 92.53125 C41.04630127 93.25715332 41.78791504 93.98305664 42.55200195 94.73095703 C45.3160544 97.440481 48.06997949 100.16010856 50.82104492 102.8828125 C52.01038613 104.05711922 53.20241277 105.22871285 54.3972168 106.39746094 C56.11970293 108.08332898 57.83211661 109.7788988 59.54296875 111.4765625 C60.07432938 111.99243927 60.60569 112.50831604 61.15315247 113.03982544 C65.42162903 117.30636872 68.73078444 121.7540832 68.7421875 127.96875 C68.55404223 132.62534549 67.38809937 136.00995715 64.3046875 139.53125 C60.17539916 143.14705171 56.09512192 143.98213904 50.7109375 144.0625 C43.9225831 142.5637724 39.1800799 137.82545105 34.49609375 133.015625 C33.88450912 132.39979553 33.2729245 131.78396606 32.64280701 131.1494751 C30.71037857 129.20038926 28.78870509 127.24108708 26.8671875 125.28125 C25.55082981 123.94982878 24.23377898 122.61909249 22.91601562 121.2890625 C19.70417205 118.04432153 16.50192487 114.79038167 13.3046875 111.53125 C13.28006439 112.4669281 13.28006439 112.4669281 13.25494385 113.42150879 C13.2096821 115.14145513 13.16377866 116.86138468 13.11730957 118.58129883 C13.07136296 120.378859 13.03606539 122.17669967 13.00683594 123.97460938 C12.7793793 129.85975068 11.77536952 134.66893479 8.3046875 139.53125 C4.0980034 143.21504066 -0.02160372 144.13386269 -5.5546875 143.8515625 C-10.14452821 143.16476152 -12.89816045 141.393036 -16.0078125 138.03125 C-18.42297319 134.45323417 -18.82223172 131.79272249 -18.84248352 127.57926941 C-18.84963882 126.55728958 -18.85679413 125.53530975 -18.86416626 124.48236084 C-18.86685516 123.36178284 -18.86954407 122.24120483 -18.87231445 121.08666992 C-18.87888565 119.90593399 -18.88545685 118.72519806 -18.89222717 117.50868225 C-18.91197255 113.59303433 -18.92362674 109.67739981 -18.93359375 105.76171875 C-18.93764217 104.41249382 -18.94175912 103.06326909 -18.94594383 101.71404457 C-18.96498943 95.37515839 -18.97922213 89.03628381 -18.9875558 82.69737452 C-18.99732816 75.38535255 -19.02364991 68.07363329 -19.06405669 60.76171798 C-19.09423423 55.10640623 -19.10902618 49.45118119 -19.11233681 43.79579049 C-19.11468534 40.41966932 -19.12361946 37.04387179 -19.14879799 33.66783714 C-19.17308669 29.89964934 -19.17224273 26.13225542 -19.1652832 22.36401367 C-19.17809326 21.24950836 -19.19090332 20.13500305 -19.20410156 18.98672485 C-19.16268839 12.84114793 -18.83645171 9.18917154 -14.6953125 4.53125 C-9.86344615 0.35054803 -6.10713065 -0.06303528 0 0 Z M12.3046875 31.53125 C12.3046875 42.42125 12.3046875 53.31125 12.3046875 64.53125 C24.03432528 64.80604054 24.03432528 64.80604054 33.1171875 59.15625 C36.17371794 55.48841348 37.1444068 52.94706289 37.6796875 48.21875 C37.08272629 42.34863142 35.01672759 38.15977594 30.7421875 34.09375 C24.3779847 30.01413282 21.33046959 31.53125 12.3046875 31.53125 Z " fill="#000000" transform="translate(339.6953125,368.46875)"/>
<path d="M0 0 C2.29995868 0.00859752 4.59749652 -0.02049224 6.8972168 -0.05200195 C8.37703377 -0.05361242 9.85685509 -0.0530394 11.33666992 -0.05004883 C12.01490311 -0.06128281 12.69313629 -0.07251678 13.391922 -0.08409119 C18.34954258 -0.0119588 21.14860073 1.36124185 24.97338867 4.44604492 C28.73493731 9.58682806 28.89043264 15.31164398 27.97338867 21.44604492 C26.60381981 25.10484483 24.66234108 27.58029271 21.15161133 29.37988281 C13.49429067 32.05805457 5.98175956 31.88079719 -2.05200195 31.88549805 C-8.31913086 31.99518226 -12.29911408 32.14832015 -17.02661133 36.44604492 C-19.59529975 40.57828282 -18.95680411 43.79508101 -18.02661133 48.44604492 C-17.92348633 49.20916992 -17.82036133 49.97229492 -17.71411133 50.75854492 C-17.14361625 52.62611518 -17.14361625 52.62611518 -15.15161133 53.63354492 C-11.30841304 55.10300309 -8.13702138 55.56842609 -4.02246094 55.68505859 C9.77963347 56.11286525 21.93000714 58.7042902 32.16088867 68.55151367 C40.67825584 77.64818706 44.38543676 87.38464491 44.28588867 99.82104492 C44.28024902 100.56491455 44.27460937 101.30878418 44.26879883 102.07519531 C44.01211009 113.74436713 39.68503732 123.4992763 31.84838867 132.19604492 C21.19174786 142.19107611 7.95726803 143.81979481 -5.91748047 143.81665039 C-8.08810849 143.82104289 -10.25672961 143.85750275 -12.42700195 143.89526367 C-25.38830404 144.00038554 -25.38830404 144.00038554 -31.02661133 139.44604492 C-34.23337047 135.59793395 -34.99841103 131.37169753 -35.02661133 126.44604492 C-34.23037797 120.67335305 -32.14385065 118.13470044 -27.78051758 114.61010742 C-24.29129644 112.29432145 -21.10718284 112.29032955 -17.03833008 112.19995117 C-15.8569043 112.16708008 -14.67547852 112.13420898 -13.45825195 112.1003418 C-10.97396299 112.0394333 -8.48958347 111.98210699 -6.00512695 111.9284668 C-4.2271875 111.87722656 -4.2271875 111.87722656 -2.41333008 111.82495117 C-1.33269287 111.79989502 -0.25205566 111.77483887 0.86132812 111.74902344 C4.18202351 111.42573302 6.89087924 110.7140613 9.97338867 109.44604492 C12.73845898 105.29843946 12.37502253 100.25692003 11.97338867 95.44604492 C11.54006277 92.52093039 11.54006277 92.52093039 9.97338867 90.44604492 C5.39732982 88.51423565 1.28136569 88.16908559 -3.65161133 88.00854492 C-17.22799889 87.33962678 -30.78065444 84.04073288 -40.39379883 73.70776367 C-49.44959812 61.16396513 -51.36229043 48.59671887 -50.02661133 33.44604492 C-47.57202723 22.125136 -41.2434936 13.0200629 -31.71411133 6.50854492 C-22.00064322 0.3022945 -11.17343127 -0.06377941 0 0 Z " fill="#000000" transform="translate(50.026611328125,368.553955078125)"/>
<path d="M0 0 C0.72231812 -0.0065712 1.44463623 -0.0131424 2.18884277 -0.01991272 C4.57861437 -0.03961878 6.96832322 -0.05130209 9.3581543 -0.0612793 C10.17535635 -0.06535482 10.9925584 -0.06943035 11.83452415 -0.07362938 C16.15969972 -0.09447835 20.48484367 -0.10878529 24.81005859 -0.11816406 C29.27231878 -0.12922785 33.73408022 -0.16363042 38.19616413 -0.20333576 C41.6320436 -0.22950644 45.06780427 -0.23785626 48.50377464 -0.24144554 C50.14838213 -0.24631012 51.79298436 -0.25792054 53.43749428 -0.27648354 C55.74258365 -0.30088636 58.04638295 -0.2999086 60.3515625 -0.29296875 C61.66155716 -0.29883499 62.97155182 -0.30470123 64.32124329 -0.31074524 C69.29271286 0.37256649 72.39999531 2.50438246 75.68237305 6.23950195 C78.19510147 10.33921675 78.36695144 14.49913925 77.86987305 19.17700195 C76.2687216 23.33999573 74.40409126 26.42816556 70.86987305 29.17700195 C65.28799804 31.19248051 60.3292282 31.42554606 54.43237305 31.30200195 C53.60543945 31.29297852 52.77850586 31.28395508 51.92651367 31.2746582 C49.90750596 31.25131707 47.88864949 31.21545484 45.86987305 31.17700195 C45.87875549 32.41204468 45.88763794 33.6470874 45.89678955 34.91955566 C45.97796012 46.57219915 46.03787929 58.22478509 46.07712173 69.8776474 C46.09797509 75.86817734 46.12625215 81.85847861 46.17163086 87.84887695 C46.21516809 93.6325352 46.23902709 99.41597382 46.24938202 105.19978333 C46.25675918 107.40374711 46.27116507 109.6076992 46.29279327 111.81156921 C46.32193132 114.90434523 46.32582462 117.99621961 46.32397461 121.08911133 C46.34554626 122.4485788 46.34554626 122.4485788 46.36755371 123.83551025 C46.32974309 129.69698798 45.32381082 134.33839755 41.86987305 139.17700195 C37.66426866 142.86140274 33.54285171 143.7795774 28.01049805 143.49731445 C23.42065734 142.81051347 20.6670251 141.03878796 17.55737305 137.67700195 C15.32101922 134.36388517 14.74476702 131.88735446 14.74961853 127.98188782 C14.74824387 127.12793427 14.7468692 126.27398071 14.74545288 125.39414978 C14.74904816 124.46051102 14.75264343 123.52687225 14.75634766 122.56494141 C14.75620163 121.5793927 14.7560556 120.59384399 14.75590515 119.57843018 C14.7566027 116.31569225 14.76438777 113.05301117 14.7722168 109.7902832 C14.77408154 107.53012625 14.77550518 105.2699689 14.77650452 103.0098114 C14.78032529 97.05694465 14.79015185 91.10410224 14.8012085 85.15124512 C14.81143205 79.07845387 14.81600417 73.0056587 14.82104492 66.93286133 C14.83177449 55.01423083 14.84884566 43.09561842 14.86987305 31.17700195 C13.65170898 31.20020508 12.43354492 31.2234082 11.1784668 31.24731445 C9.55477505 31.26608546 7.93107662 31.28428422 6.30737305 31.30200195 C5.50750977 31.31875977 4.70764648 31.33551758 3.88354492 31.3527832 C-2.53371004 31.40516896 -7.85690403 31.09661242 -12.94262695 26.80200195 C-16.8608875 22.1000893 -17.56998976 18.6898365 -17.4543457 12.6496582 C-16.83030513 7.890409 -13.76001991 4.17560918 -10.13012695 1.17700195 C-6.58712646 -0.00399821 -3.74067545 0.02816134 0 0 Z " fill="#000000" transform="translate(113.130126953125,368.822998046875)"/>
<path d="M0 0 C0.73236374 -0.00686325 1.46472748 -0.0137265 2.21928406 -0.02079773 C4.63084515 -0.03904083 7.04175411 -0.03523193 9.45336914 -0.02954102 C11.13579011 -0.03410412 12.81820921 -0.03941007 14.50062561 -0.04542542 C18.02360617 -0.05435167 21.54635998 -0.05193909 25.06933594 -0.04199219 C29.57644931 -0.03050456 34.08277896 -0.05071282 38.58978939 -0.07990932 C42.06345056 -0.09828588 45.53692443 -0.09797597 49.01062202 -0.0922718 C50.67195294 -0.09211876 52.33329668 -0.09814927 53.99458122 -0.11056328 C56.3211013 -0.12549921 58.64618021 -0.11477877 60.97265625 -0.09765625 C61.6538855 -0.10732422 62.33511475 -0.11699219 63.0369873 -0.12695312 C67.96330915 -0.0513149 70.74276001 1.35187546 74.55102539 4.40405273 C78.60732937 9.62665131 78.32500083 15.05745416 77.55102539 21.40405273 C75.40766058 25.92893401 73.08520842 28.30284597 68.55102539 30.40405273 C63.8187141 31.70276974 59.1031414 31.51646592 54.23852539 31.46655273 C53.40256836 31.46204102 52.56661133 31.4575293 51.70532227 31.45288086 C49.6538589 31.44115821 47.60243266 31.42322476 45.55102539 31.40405273 C45.55990784 32.66859283 45.56879028 33.93313293 45.57794189 35.23599243 C45.6590351 47.15415097 45.71899452 59.07225352 45.75827408 70.99062538 C45.77914701 77.11797206 45.80745992 83.24509598 45.8527832 89.37231445 C45.89625049 95.2856401 45.92016471 101.1987515 45.93053436 107.11222458 C45.93792407 109.36808011 45.95235438 111.62392395 45.97394562 113.87968826 C46.00299055 117.03992282 46.00698083 120.19927255 46.00512695 123.35961914 C46.02669861 124.75792465 46.02669861 124.75792465 46.04870605 126.18447876 C46.01326188 131.7698581 45.29247311 134.9768813 41.55102539 139.40405273 C37.51644905 142.94958952 33.98136735 143.71344544 28.60571289 143.61499023 C23.94284629 143.1362929 20.79239921 140.91449 17.73852539 137.52905273 C13.8735652 132.00768103 14.41144196 126.35177651 14.4375 119.84033203 C14.43735397 118.88375198 14.43720795 117.92717194 14.4370575 116.94160461 C14.43775286 113.78713698 14.44552769 110.63272877 14.45336914 107.47827148 C14.45523465 105.28823377 14.45665793 103.09819563 14.45765686 100.90815735 C14.46147153 95.14931075 14.47129287 89.39048945 14.48236084 83.63165283 C14.49259753 77.75305524 14.49715932 71.87445355 14.50219727 65.99584961 C14.51291606 54.46523955 14.52997989 42.93464825 14.55102539 31.40405273 C13.38547119 31.41782959 12.21991699 31.43160645 11.01904297 31.44580078 C9.47371646 31.45694355 7.9283875 31.46774934 6.38305664 31.47827148 C5.61674927 31.48822144 4.85044189 31.49817139 4.06091309 31.50842285 C-2.88675913 31.54387968 -8.6714838 31.03910812 -13.88647461 26.09155273 C-16.81207948 21.05951236 -17.93039721 17.0919483 -16.98803711 11.36108398 C-15.84334739 7.20536262 -13.67645181 4.33110393 -10.27391052 1.76133728 C-6.79129318 0.08805943 -3.78186231 -0.02491698 0 0 Z " fill="#000000" transform="translate(434.448974609375,368.595947265625)"/>
<path d="M0 0 C3.76410993 1.50564397 7.03540064 3.03201369 10.55078125 4.984375 C11.63029053 5.58314453 12.7097998 6.18191406 13.82202148 6.79882812 C14.97387939 7.44271484 16.1257373 8.08660156 17.3125 8.75 C17.90459259 9.07991943 18.49668518 9.40983887 19.10671997 9.74975586 C30.55827623 16.13181583 41.89724767 22.70082002 53.19482422 29.3515625 C58.12238735 32.24720273 63.06159414 35.12290275 68 38 C66.70370192 41.88889425 65.3996439 42.166712 61.83984375 44.08203125 C60.74760498 44.67749756 59.65536621 45.27296387 58.5300293 45.88647461 C57.94474457 46.20019012 57.35945984 46.51390564 56.75643921 46.83712769 C53.66564106 48.4945107 50.59169324 50.18267216 47.515625 51.8671875 C46.88669846 52.21057663 46.25777191 52.55396576 45.60978699 52.90776062 C39.40310986 56.30523762 33.28796267 59.85311661 27.1875 63.4375 C25.70793823 64.30459595 25.70793823 64.30459595 24.19848633 65.18920898 C22.32353418 66.28845031 20.44892263 67.38827286 18.57470703 68.48876953 C14.93061678 70.62767705 11.28298069 72.75993369 7.625 74.875 C6.56539062 75.49117188 5.50578125 76.10734375 4.4140625 76.7421875 C2 78 2 78 0 78 C0 52.26 0 26.52 0 0 Z " fill="#000000" transform="translate(230,128)"/>
</svg>
